<?xml version="1.0" encoding="utf-8"?>
<!-- Generator: Adobe Illustrator 27.2.0, SVG Export Plug-In . SVG Version: 6.00 Build 0)  -->
<svg version="1.1" id="Capa_1" xmlns="http://www.w3.org/2000/svg" xmlns:xlink="http://www.w3.org/1999/xlink" x="0px" y="0px"
	 viewBox="0 0 800 370" style="enable-background:new 0 0 800 370;" xml:space="preserve">
<style type="text/css">
	.st0{fill:#F2F4F6;}
	.st1{fill:#5BA266;}
	.st2{fill:#CA522D;}
	.st3{fill:#F4DE36;}
	.st4{fill:#C4293A;}
	.st5{fill:#76BDE7;}
	.st6{fill:#FFFFFF;stroke:#000000;stroke-width:0.5;stroke-miterlimit:10;}
</style>
<image style="overflow:visible;enable-background:new    ;" width="1412" height="727" xlink:href="40D7F9E5.png"  transform="matrix(0.48 0 0 0.48 60.96 10.56)">
</image>
<g>
	<path class="st0" d="M98.5,166.7c-4.8,35.6,4.6,70.9,24.7,99c13.3,18.5,31.2,33.9,52.8,44.3c5.2,2.5,10.6,4.7,16.1,6.6
		c5.6,1.9,11.2,3.3,16.9,4.4c23.5,4.7,47.1,3.1,68.8-3.8c32.9-10.5,61.6-33.1,79.1-64.4l-11-6.2c-5.2,9.4-11.5,17.9-18.7,25.4
		c-7.4,7.7-15.6,14.4-24.5,19.9c-9,5.6-18.6,10-28.7,13.2c-10,3.2-20.4,5.1-31.1,5.7c-10.4,0.6-20.9-0.1-31.5-2.2
		c-5.1-1-10.2-2.3-15.3-4c-5.1-1.7-10-3.7-14.7-6c-9.7-4.6-18.6-10.4-26.5-17.1c-8.1-6.9-15.3-14.6-21.4-23.1
		c-6.2-8.6-11.2-17.9-15-27.8c-3.8-9.8-6.4-20.1-7.6-30.6c-1.2-10.4-1.2-20.9,0.2-31.6c1.1-7.7,2.8-15.4,5.3-23.1
		c0.9-2.5,1.8-5,2.8-7.4c4-10,9.2-19.2,15.4-27.6c6.3-8.6,13.7-16.2,21.8-22.8c8.2-6.7,17.2-12.3,26.8-16.7
		c9.5-4.4,19.7-7.7,30.1-9.6c10.3-1.9,20.9-2.5,31.6-1.8c10.3,0.7,20.7,2.8,31,6.2s19.8,8,28.5,13.6c9,5.8,17.1,12.7,24.2,20.3
		c7.2,7.8,13.3,16.4,18.3,25.7l11.1-6c-16.2-29.9-43.3-54-78.1-65.6c-34.8-11.6-71-8.6-101.8,5.7c-31.1,14.3-56.7,40.1-70.3,73.8
		c-1.1,2.7-2.1,5.4-3,8.2C101.6,149.7,99.7,158.2,98.5,166.7"/>
	<path class="st1" d="M111.4,203.9c1.6,10.6,4.6,20.8,8.7,30.4c4.2,9.8,9.5,18.9,15.9,27.2c6.5,8.4,13.9,15.9,22.3,22.4l7.8-9.9
		c-7.5-5.9-14.2-12.6-20.1-20.2c-5.8-7.5-10.6-15.7-14.4-24.5c-3.7-8.6-6.3-17.8-7.8-27.3c-1.1-6.9-1.5-14.1-1.3-21.3
		c0.1-2.4,0.3-4.8,0.5-7.1c0.9-9.6,3.1-18.9,6.3-27.7c3.3-9,7.7-17.5,13-25.2c5.4-7.9,11.7-15,18.9-21.2c7.1-6.2,15-11.6,23.5-15.9
		c8.4-4.2,17.4-7.5,26.8-9.5c9.1-2,18.6-2.9,28.3-2.5c9.7,0.3,19.1,1.9,28,4.5l3.5-12.1c-9.9-2.9-20.4-4.6-31.1-5
		c-10.8-0.4-21.4,0.6-31.4,2.8c-10.5,2.3-20.5,5.9-29.8,10.6c-9.5,4.8-18.2,10.7-26.1,17.7c-7.9,6.9-15,14.9-21,23.6
		c-5.9,8.6-10.8,18-14.4,28.1c-3.5,9.7-5.9,20-7,30.8c-0.2,2.6-0.5,5.3-0.6,7.9C109.8,188.3,110.3,196.2,111.4,203.9"/>
	<path class="st2" d="M123.9,202c1.5,9.5,4.1,18.7,7.8,27.3c3.8,8.8,8.6,17,14.4,24.5c5.8,7.5,12.6,14.3,20.1,20.2
		c7.4,5.8,15.6,10.7,24.4,14.6c8.6,3.7,17.7,6.5,27.3,8c4.6,0.8,9.3,1.2,14.2,1.4c4.8,0.2,9.6,0,14.2-0.4c9.6-0.9,18.9-2.9,27.8-6.1
		l-4.2-11.9c-7.8,2.8-16.1,4.6-24.6,5.4c-4.2,0.4-8.4,0.5-12.7,0.4c-4.3-0.2-8.5-0.6-12.6-1.3c-8.5-1.4-16.6-3.8-24.2-7.1
		c-7.8-3.4-15.1-7.8-21.7-13c-6.6-5.2-12.7-11.2-17.8-17.9c-5.1-6.7-9.4-14-12.8-21.8c-3.3-7.7-5.6-15.8-6.9-24.3
		c-0.9-6.2-1.4-12.5-1.1-18.9c0.1-2.1,0.2-4.2,0.4-6.3c0.9-8.6,2.8-16.8,5.6-24.6c2.9-8,6.8-15.5,11.6-22.4
		c4.8-7,10.4-13.3,16.8-18.9c6.3-5.6,13.3-10.3,20.9-14.1c7.5-3.8,15.5-6.7,23.8-8.5l-2.7-12.3c-9.4,2.1-18.4,5.3-26.8,9.5
		c-8.5,4.3-16.4,9.7-23.5,15.9c-7.1,6.2-13.5,13.4-18.9,21.2c-5.3,7.8-9.7,16.2-13,25.2c-3.2,8.8-5.3,18.1-6.3,27.7
		c-0.2,2.4-0.4,4.7-0.5,7.1C122.4,187.9,122.8,195,123.9,202"/>
	<path class="st3" d="M136.4,200c1.3,8.5,3.6,16.6,6.9,24.3c3.3,7.8,7.6,15.1,12.8,21.8c5.1,6.7,11.1,12.7,17.8,17.9
		c6.6,5.2,13.9,9.5,21.7,13c7.6,3.3,15.7,5.7,24.2,7.1l2-12.4c-7.4-1.2-14.5-3.3-21.2-6.2c-6.8-3-13.2-6.8-19-11.3
		c-5.8-4.6-11.1-9.8-15.6-15.7c-4.5-5.8-8.3-12.2-11.2-19.1c-2.9-6.7-4.9-13.8-6.1-21.2c-0.8-5.4-1.2-10.9-1-16.6
		c0.1-1.9,0.2-3.7,0.4-5.5c0.7-7.5,2.4-14.7,4.9-21.5c2.6-7,6-13.6,10.1-19.6c4.2-6.1,9.1-11.7,14.7-16.5c5.6-4.8,11.7-9,18.3-12.4
		c6.5-3.3,13.5-5.8,20.9-7.4c7-1.5,14.4-2.2,22-2c7.5,0.3,14.9,1.5,21.8,3.5c7.2,2.1,14,5.1,20.3,8.9c6.4,3.8,12.2,8.4,17.4,13.6
		l8.9-8.9c-5.9-6-12.6-11.2-19.9-15.6c-7.2-4.3-15-7.7-23.2-10.1c-7.9-2.3-16.3-3.7-24.9-4c-8.6-0.3-17.1,0.5-25.1,2.2
		c-8.4,1.8-16.3,4.7-23.8,8.5c-7.6,3.8-14.6,8.6-20.9,14.1c-6.4,5.6-12,11.9-16.8,18.9c-4.7,6.9-8.6,14.4-11.6,22.5
		c-2.8,7.8-4.7,16-5.6,24.6c-0.2,2.1-0.4,4.2-0.4,6.3C135,187.6,135.5,193.9,136.4,200"/>
	<path class="st4" d="M148.8,198.1c1.1,7.4,3.2,14.5,6.1,21.2c2.9,6.8,6.7,13.2,11.2,19.1c4.5,5.9,9.7,11.1,15.6,15.7
		c5.8,4.5,12.1,8.3,19,11.3c6.7,2.9,13.8,5,21.2,6.2c3.6,0.6,7.3,1,11,1.1c3.7,0.1,7.5,0,11.1-0.3c7.5-0.7,14.7-2.3,21.6-4.7
		c7-2.5,13.6-5.9,19.7-10c6.1-4.2,11.7-9,16.6-14.6l-9.4-8.4c-4.2,4.7-9,8.9-14.3,12.5c-5.2,3.5-10.9,6.4-16.9,8.5
		c-5.9,2.1-12.1,3.5-18.5,4c-3.1,0.3-6.3,0.4-9.5,0.3c-3.2-0.1-6.4-0.4-9.4-0.9c-6.4-1-12.5-2.9-18.2-5.4
		c-5.9-2.6-11.3-5.8-16.2-9.7c-5-3.9-9.5-8.4-13.4-13.4c-3.8-5-7-10.5-9.6-16.3c-2.5-5.7-4.2-11.8-5.2-18.2c-0.7-4.6-1-9.4-0.9-14.2
		c0.1-1.6,0.2-3.2,0.3-4.7c0.6-6.4,2.1-12.6,4.2-18.4c2.2-6,5.1-11.7,8.7-16.8c3.6-5.2,7.8-10,12.6-14.2c4.7-4.2,10-7.7,15.7-10.6
		c5.6-2.8,11.6-5,17.9-6.4c6.1-1.3,12.4-1.9,18.9-1.7c6.5,0.2,12.7,1.3,18.7,3c6.2,1.8,12,4.4,17.4,7.6c5.5,3.3,10.5,7.2,14.9,11.7
		c4.5,4.5,8.4,9.5,11.6,15l10.9-6.4c-3.7-6.4-8.3-12.3-13.5-17.5c-5.2-5.2-11-9.8-17.4-13.6c-6.3-3.8-13.1-6.8-20.3-8.9
		c-6.9-2-14.2-3.2-21.8-3.5c-7.6-0.3-14.9,0.4-22,2c-7.3,1.6-14.3,4.1-20.9,7.4c-6.6,3.4-12.8,7.5-18.3,12.4
		c-5.6,4.9-10.5,10.4-14.7,16.5c-4.1,6-7.5,12.6-10.1,19.6c-2.5,6.8-4.2,14-4.9,21.5c-0.2,1.8-0.3,3.7-0.4,5.5
		C147.6,187.2,148,192.7,148.8,198.1"/>
	<path class="st5" d="M161.3,196.2c1,6.4,2.7,12.4,5.2,18.2c2.5,5.9,5.7,11.3,9.6,16.3c3.9,5,8.4,9.5,13.4,13.4
		c5,3.9,10.4,7.1,16.2,9.7c5.7,2.5,11.8,4.3,18.2,5.4c3.1,0.5,6.2,0.8,9.4,0.9c3.2,0.1,6.4,0,9.5-0.3l-1.1-12.5
		c-2.6,0.2-5.2,0.3-7.9,0.2c-2.7-0.1-5.3-0.4-7.9-0.8c-5.3-0.9-10.4-2.4-15.1-4.4c-4.9-2.1-9.4-4.9-13.6-8.1
		c-4.2-3.2-7.9-7-11.1-11.2c-3.2-4.2-5.9-8.7-8-13.6c-2.1-4.8-3.5-9.9-4.3-15.2c-0.6-3.8-0.8-7.8-0.7-11.8c0-1.3,0.1-2.6,0.3-3.9
		c0.5-5.4,1.7-10.5,3.5-15.4c1.8-5,4.3-9.7,7.2-14c3-4.4,6.6-8.3,10.5-11.8c4-3.5,8.4-6.4,13.1-8.8c4.7-2.4,9.6-4.2,14.9-5.3
		c5.1-1.1,10.3-1.6,15.7-1.4l0.4-12.6c-6.5-0.2-12.8,0.4-18.9,1.7c-6.3,1.4-12.3,3.5-17.9,6.4c-5.7,2.9-10.9,6.4-15.7,10.6
		c-4.8,4.2-9,8.9-12.6,14.2c-3.6,5.2-6.5,10.8-8.7,16.8c-2.1,5.8-3.6,12-4.2,18.4c-0.1,1.6-0.3,3.1-0.3,4.7
		C160.2,186.8,160.5,191.6,161.3,196.2"/>
	<path class="st0" d="M268.9,144.8c-7-3.9-14.9-5.9-23.9-5.9h-21.2c-1.3,0-2.4,0.4-3.3,1.3s-1.3,2-1.3,3.3v83c0,1.3,0.4,2.4,1.3,3.3
		s2,1.3,3.3,1.3h21.2c8.9,0,16.9-1.9,23.9-5.9c7-3.9,12.5-9.4,16.4-16.4s5.9-15,5.9-23.9s-2-16.8-5.9-23.8
		C281.4,154.2,276,148.8,268.9,144.8 M277.3,204.5c-3.1,5.7-7.5,10.2-13.1,13.5c-5.6,3.3-12,4.9-19.1,4.9h-16.6v-75.7h16.6
		c7.1,0,13.5,1.6,19.1,4.9c5.6,3.2,10,7.7,13.1,13.4c3.2,5.7,4.7,12.2,4.7,19.5S280.5,198.7,277.3,204.5"/>
	<path class="st0" d="M343.8,169.4c-5-2.9-10.6-4.3-16.7-4.3s-11.7,1.4-16.7,4.3c-5,2.9-8.9,6.8-11.8,11.9
		c-2.9,5.1-4.3,10.6-4.3,16.8s1.4,11.7,4.2,16.7c2.8,5,6.6,8.9,11.5,11.8c4.8,2.9,10.2,4.3,16.2,4.3c5.1,0,9.8-1.1,14.1-3.2
		c4.3-2.2,7.8-5.1,10.5-8.9v7.1c0,1.3,0.4,2.4,1.3,3.3c0.9,0.8,2,1.2,3.3,1.2s2.4-0.4,3.3-1.3s1.3-1.9,1.3-3.2V198
		c0-6.2-1.4-11.7-4.3-16.8C352.7,176.2,348.8,172.2,343.8,169.4 M347.8,210.6c-2.1,3.7-4.9,6.7-8.6,8.8c-3.6,2.1-7.7,3.2-12.1,3.2
		s-8.6-1.1-12.2-3.2c-3.7-2.1-6.5-5.1-8.6-8.8c-2.1-3.8-3.1-7.9-3.1-12.6s1-8.9,3.1-12.6c2.1-3.7,5-6.7,8.6-8.9
		c3.7-2.2,7.7-3.3,12.2-3.3s8.5,1.1,12.1,3.3c3.6,2.2,6.5,5.1,8.6,8.9c2.1,3.7,3.1,7.9,3.1,12.6S349.9,206.8,347.8,210.6"/>
	<path class="st0" d="M396.2,221.1H393c-3.7,0-6.7-1.3-9.1-3.8c-2.4-2.6-3.5-5.9-3.5-9.9v-31.5h13.3c1.3,0,2.3-0.4,3-1.1
		c0.7-0.7,1.1-1.7,1.1-2.8c0-1.2-0.4-2.1-1.1-2.9c-0.8-0.8-1.8-1.1-3-1.1h-13.3v-18.3c0-1.4-0.4-2.4-1.3-3.3s-2-1.3-3.3-1.3
		s-2.4,0.4-3.3,1.3c-0.8,0.9-1.2,2-1.2,3.3V168h-7.7c-1.2,0-2.3,0.4-3,1.1c-0.7,0.8-1.1,1.7-1.1,2.9s0.4,2.1,1.1,2.8
		c0.8,0.8,1.8,1.1,3,1.1h7.7v31.5c0,4.3,0.9,8.2,2.8,11.6c1.9,3.4,4.4,6.1,7.7,8.1c3.3,2,7.1,3,11.2,3h2.5c1.4,0,2.6-0.4,3.5-1.3
		c0.9-0.9,1.4-1.9,1.4-3.2c0-1.3-0.4-2.4-1.2-3.3C398.5,221.6,397.5,221.1,396.2,221.1"/>
	<path class="st0" d="M451.5,169.4c-5-2.9-10.6-4.3-16.7-4.3s-11.7,1.4-16.7,4.3c-5,2.9-8.9,6.8-11.8,11.9
		c-2.9,5.1-4.3,10.6-4.3,16.8s1.4,11.7,4.2,16.7c2.8,5,6.6,8.9,11.4,11.8c4.9,2.9,10.3,4.3,16.2,4.3c5.1,0,9.8-1.1,14.1-3.2
		c4.2-2.2,7.8-5.1,10.5-8.9v7.1c0,1.3,0.4,2.4,1.3,3.3c0.9,0.8,2,1.2,3.3,1.2s2.5-0.4,3.3-1.3c0.9-0.9,1.3-1.9,1.3-3.2V198
		c0-6.2-1.4-11.7-4.3-16.8C460.4,176.2,456.5,172.2,451.5,169.4 M455.5,210.6c-2.1,3.7-4.9,6.7-8.6,8.8c-3.6,2.1-7.7,3.2-12.1,3.2
		s-8.6-1.1-12.2-3.2c-3.7-2.1-6.5-5.1-8.6-8.8c-2.1-3.8-3.1-7.9-3.1-12.6s1-8.9,3.1-12.6c2.1-3.7,5-6.7,8.6-8.9
		c3.6-2.2,7.7-3.3,12.2-3.3s8.5,1.1,12.1,3.3c3.6,2.2,6.5,5.1,8.6,8.9c2.1,3.7,3.1,7.9,3.1,12.6S457.5,206.8,455.5,210.6"/>
	<path class="st0" d="M487.4,218.3c-1.8,0-3.4,0.7-4.8,2c-1.4,1.3-2.1,3-2.1,4.9s0.7,3.5,2,4.9c1.4,1.3,2.9,2,4.9,2s3.5-0.7,4.8-2
		c1.3-1.3,2-2.9,2-4.9s-0.7-3.5-2-4.9C490.9,219,489.3,218.3,487.4,218.3"/>
	<path class="st0" d="M572.1,142.6c0-1.9-0.6-3.4-1.8-4.7c-2.4-2.5-6.9-2.5-9.4,0c-1.2,1.2-1.9,2.9-1.9,4.7V172
		c-2.2-2.2-4.8-4-7.6-5.4c-4.5-2.3-9.5-3.5-15-3.5c-6.3,0-12.1,1.6-17.2,4.6c-5.1,3.1-9.2,7.2-12.2,12.5c-2.9,5.3-4.5,11.2-4.5,17.7
		s1.5,12.4,4.6,17.7c3,5.3,7.2,9.5,12.5,12.6c5.3,3.1,11.2,4.6,17.7,4.6s12.4-1.5,17.7-4.6c5.3-3,9.5-7.3,12.5-12.6
		c3-5.3,4.6-11.3,4.6-17.7v-27.8c0-0.5,0-0.9-0.1-1.3L572.1,142.6L572.1,142.6z M559.3,197.9c0,4.3-1,8.2-2.9,11.6
		c-1.9,3.4-4.5,6.1-7.8,8.1c-3.3,2-7,3-11.2,3s-7.9-1-11.2-3c-3.3-2-6-4.7-7.9-8.1c-1.9-3.4-2.9-7.4-2.9-11.6s1-8.2,2.9-11.6
		c1.9-3.4,4.6-6.1,7.9-8c3.3-1.9,7.1-2.9,11.2-2.9c5.8,0,10.5,1.8,14.6,5.4c4,3.6,6.4,8.2,7.1,13.6c0,0.4,0.1,0.8,0.2,1.1
		C559.3,196,559.3,196.8,559.3,197.9"/>
	<path class="st4" d="M640.5,231.6c-3.3,1.4-6.7,0.3-8.2-3.1L612,183.9l-21.2,44.6c-1,2.4-2.9,3.7-5.3,3.7c-1.1,0-2.1-0.2-2.9-0.6
		c-2.5-1-3.8-2.9-3.8-5.4c0-1.1,0.2-2.1,0.7-3l26-53.8l-11.4-25.1c-0.4-1-0.6-1.9-0.6-2.9c0-2.5,1.4-4.4,3.8-5.3
		c0.9-0.5,1.9-0.7,3-0.7c1.4,0,3.9,0.5,5.2,3.9l38.3,84.1c0.4,0.9,0.6,1.9,0.6,2.9C644.4,227.7,643.9,230.2,640.5,231.6"/>
	<path class="st0" d="M698.6,164.2c-3.3-1.4-6.7-0.3-8.2,3.1l-20.2,44.5L649,167.2c-1-2.4-2.9-3.7-5.3-3.7c-1.1,0-2.1,0.2-2.9,0.6
		c-2.5,1-3.8,2.9-3.8,5.4c0,1.1,0.2,2.1,0.7,3l26,53.8l-11.4,25.1c-0.4,1-0.6,1.9-0.6,2.9c0,2.5,1.4,4.4,3.8,5.3
		c0.9,0.5,1.9,0.7,3,0.7c1.4,0,3.9-0.5,5.2-3.9l38.3-84.1c0.4-0.9,0.6-1.9,0.6-2.9C702.5,168,702,165.5,698.6,164.2"/>
</g>
<g>
	<path class="st6" d="M360.3,295.4c0-6.9,3.8-10.2,12.6-10.2c8.8,0,12.6,3.3,12.6,10.2c0,6.9-3.8,10.3-12.6,10.3
		C364,305.7,360.3,302.4,360.3,295.4z M378,295.4c0-2.1-0.7-4-5.1-4c-4.4,0-5.1,1.9-5.1,4c0,2.1,0.8,4,5.1,4
		C377.2,299.4,378,297.5,378,295.4z"/>
	<path class="st6" d="M398.5,285.2c8,0,12.2,2.8,12.5,9.1h-7.6c-0.3-1.9-1.7-2.8-4.9-2.8c-4.4,0-5.1,1.9-5.1,4c0,2.1,0.8,4,5.1,4
		c3.1,0,4.6-1,4.9-2.9h7.6c-0.3,6.3-4.5,9.2-12.5,9.2c-8.8,0-12.6-3.3-12.6-10.3C386,288.5,389.7,285.2,398.5,285.2z"/>
	<path class="st6" d="M435.8,291.7h-8.6v13.7h-7.4v-13.7h-8.6v-6.3h24.6V291.7z"/>
	<path class="st6" d="M449.3,305.7c-8.8,0-12.6-3.3-12.6-10.3v-10h7.4v10c0,2.1,0.8,4,5.1,4s5.1-1.9,5.1-4v-10h7.4v10
		C461.8,302.4,458,305.7,449.3,305.7z"/>
	<path class="st6" d="M487.7,299.5c0,3.3-2,5.9-6.5,5.9H463v-20h17.4c4.5,0,5.9,2.1,5.9,5.1c0,1.3-0.6,2.6-1.6,3.7
		C486.5,295.5,487.7,297.4,487.7,299.5z M470.4,292.5h6.9c0.7,0,1.7,0,1.7-1.1c0-1.1-0.9-1.1-1.7-1.1h-6.9V292.5z M480.3,299
		c0-1.1-0.9-1.1-1.7-1.1h-8.3v2.1h8.3C479.4,300,480.3,300,480.3,299z"/>
	<path class="st6" d="M508.4,299.7l3.5,5.7h-8.8l-2.8-4.7H496v4.7h-7.4v-20h15.7c4.5,0,7.7,3.2,7.7,7.7
		C512,296,510.6,298.4,508.4,299.7z M496,294.5h6.9c0.7,0,1.7,0,1.7-1.4c0-1.4-0.9-1.4-1.7-1.4H496V294.5z"/>
	<path class="st6" d="M520.2,291.2v1.9h13.7v4.9h-13.7v1.9h13.7v5.7h-21.1v-20h21.1v5.7H520.2z"/>
	<path class="st6" d="M557.4,299.2h10.9v6.3h-22.4V302c0-7.5,15.2-6.8,15.2-9.6c0-0.9-0.7-1-3.2-1c-2.6,0-4.3,0-4.3,1.9h-7.4
		c0-6.8,4.7-8.1,11.5-8.1c6.9,0,10.9,1.3,10.9,6.3C568.6,297.9,558.8,296.9,557.4,299.2z"/>
	<path class="st6" d="M588.3,299.2v6.3h-18.8v-6.3h5.7l0.1-6.5c-2.2,1.9-3.7,1.9-5.8,1.9v-6.3c2.9,0,5.7,0,5.7-2.9h7.4v13.7H588.3z"
		/>
	<path class="st6" d="M596.3,300.3v5.1l-3.2,6.3H590l1.9-6.3h-2.5v-5.1H596.3z"/>
	<path class="st6" d="M620,299.2H631v6.3h-22.4V302c0-7.5,15.2-6.8,15.2-9.6c0-0.9-0.7-1-3.2-1c-2.6,0-4.3,0-4.3,1.9h-7.4
		c0-6.8,4.7-8.1,11.5-8.1c6.9,0,10.9,1.3,10.9,6.3C631.2,297.9,621.4,296.9,620,299.2z"/>
	<path class="st6" d="M631.8,295.4c0-6.9,3.8-10.2,11.7-10.2c7.9,0,11.7,3.3,11.7,10.2c0,6.9-3.8,10.3-11.7,10.3
		C635.6,305.7,631.8,302.4,631.8,295.4z M647.8,295.4c0-2.1-0.7-4-4.3-4c-3.5,0-4.3,1.9-4.3,4c0,2.1,0.8,4,4.3,4
		C647,299.4,647.8,297.5,647.8,295.4z"/>
	<path class="st6" d="M667.2,299.2h10.9v6.3h-22.4V302c0-7.5,15.2-6.8,15.2-9.6c0-0.9-0.7-1-3.2-1c-2.6,0-4.3,0-4.3,1.9h-7.4
		c0-6.8,4.7-8.1,11.5-8.1c6.9,0,10.9,1.3,10.9,6.3C678.5,297.9,668.7,296.9,667.2,299.2z"/>
	<path class="st6" d="M701.4,298.9c0,5-3.9,6.9-10.9,6.9c-6.9,0-11.8-1.3-11.8-7.7h7.4c0,1.4,1.7,1.4,4.5,1.4c2.6,0,3.3-0.7,3.3-2
		c0-1.3-0.7-1.9-3-1.9c-1.8,0-3.5,0.4-5.8,1.3l-5.7-0.9l2.6-10.4H700v5.7h-12.7l-0.9,2.6c2.1-0.7,3.6-1.3,6.8-1.3
		C698.4,292.5,701.4,294.9,701.4,298.9z"/>
</g>
</svg>
